<svg width="877" height="428" viewBox="0 0 877 428" fill="none" xmlns="http://www.w3.org/2000/svg">
<rect x="604.5" y="61.5" width="183.245" height="278.96" fill="white" stroke="#979797" stroke-width="11"/>
<path d="M752.768 75.1289V314.382L603 341.219V60.4111L752.768 75.1289Z" fill="#BD68DE" stroke="#979797" stroke-width="8"/>
<circle cx="739.896" cy="234.286" r="3.42767" fill="black" stroke="#553131" stroke-width="5"/>
<g filter="url(#filter0_d_21_67)">
<path d="M286.126 200.395C286.06 199.79 286.544 199.266 287.152 199.286L369.928 201.956C370.468 201.974 370.896 202.416 370.896 202.956V363.87C370.896 364.447 370.41 364.904 369.835 364.868L304.641 360.877C304.156 360.847 303.762 360.472 303.709 359.988L286.126 200.395Z" fill="#24BAE9"/>
<path d="M318.169 140.118C318.518 139.556 319.306 139.481 319.754 139.968L365.243 189.356C365.833 189.997 365.379 191.033 364.508 191.033H288.374C287.59 191.033 287.111 190.172 287.524 189.506L318.169 140.118Z" fill="#7F3F98"/>
<path d="M466.117 253.365C466.47 252.965 467.074 252.913 467.49 253.246L486.518 268.468C486.945 268.809 487.019 269.429 486.685 269.861L408.562 370.881C408.194 371.358 407.49 371.403 407.064 370.977L383.885 347.798C383.511 347.424 383.493 346.824 383.843 346.428L466.117 253.365Z" fill="#FBE34B"/>
<path d="M478.102 294.416C477.868 294.015 477.941 293.504 478.279 293.184L501.32 271.424C501.822 270.95 502.642 271.115 502.921 271.746L538.973 353.196C539.172 353.647 539.014 354.176 538.599 354.442L521.027 365.739C520.548 366.046 519.91 365.893 519.623 365.402L478.102 294.416Z" fill="#EF402F"/>
<path d="M552.985 208.437C553 207.896 553.444 207.465 553.985 207.465H614.915C615.499 207.465 615.959 207.964 615.911 208.546L603.755 357.121C603.711 357.66 603.248 358.066 602.709 358.039L549.881 355.397C549.338 355.37 548.917 354.914 548.932 354.371L552.985 208.437Z" fill="#45B85B"/>
<path d="M554.313 155.082C554.35 154.523 554.841 154.103 555.399 154.153L615.088 159.458C615.604 159.504 615.999 159.936 615.999 160.454V196.836C615.999 197.405 615.525 197.859 614.957 197.835L552.666 195.185C552.105 195.161 551.673 194.679 551.711 194.119L554.313 155.082Z" fill="#24BAE9"/>
<g clip-path="url(#clip0_21_67)">
<path d="M719.656 244.504C720.192 244.891 720.211 245.682 719.695 246.095L678.275 279.219C677.594 279.763 676.592 279.237 676.653 278.368L680.845 218.378C680.9 217.596 681.792 217.178 682.428 217.637L719.656 244.504Z" fill="#7F3F98"/>
<path d="M736.591 136.421C736.879 136.004 737.435 135.869 737.883 136.108L752.673 143.988C753.102 144.216 753.304 144.719 753.153 145.181L722.926 237.676C722.714 238.326 721.926 238.576 721.378 238.167L685.766 211.577C685.335 211.255 685.236 210.649 685.542 210.207L736.591 136.421Z" fill="#FBE34B"/>
<path d="M683.887 286.717C683.658 286.3 683.755 285.779 684.118 285.472L721.313 253.999C721.867 253.53 722.72 253.789 722.92 254.487L752.422 357.321C752.548 357.759 752.36 358.228 751.967 358.459L731.193 370.661C730.707 370.947 730.081 370.775 729.81 370.281L683.887 286.717Z" fill="#EF402F"/>
<path d="M756.151 148.533C756.322 147.998 756.899 147.708 757.429 147.891L792.869 160.069C793.358 160.237 793.639 160.751 793.514 161.254L788.111 183.139C787.975 183.691 787.406 184.019 786.859 183.859L749.459 172.913C748.92 172.755 748.616 172.184 748.787 171.649L756.151 148.533Z" fill="#24BAE9"/>
<path d="M748.424 331.961C748.259 331.425 748.568 330.858 749.108 330.705L785.171 320.519C785.669 320.378 786.192 320.641 786.377 321.125L794.406 342.188C794.609 342.72 794.328 343.313 793.788 343.493L756.816 355.809C756.283 355.987 755.709 355.691 755.544 355.154L748.424 331.961Z" fill="#24BAE9"/>
</g>
<path d="M111.081 207.972C111.096 207.431 111.539 207 112.08 207H173.01C173.595 207 174.055 207.499 174.007 208.082L161.851 356.657C161.807 357.195 161.343 357.601 160.804 357.574L107.977 354.933C107.434 354.905 107.012 354.449 107.027 353.906L111.081 207.972Z" fill="#45B85B"/>
<path d="M60.3352 155.849C60.4238 155.361 60.8563 155.012 61.3518 155.028L228.033 160.468C228.572 160.486 229 160.928 229 161.468V197.984C229 198.543 228.543 198.993 227.984 198.984L54.1789 196.268C53.5615 196.259 53.1003 195.697 53.2106 195.09L60.3352 155.849Z" fill="#24BAE9"/>
</g>
<defs>
<filter id="filter0_d_21_67" x="49.1943" y="133" width="736.806" height="246.27" filterUnits="userSpaceOnUse" color-interpolation-filters="sRGB">
<feFlood flood-opacity="0" result="BackgroundImageFix"/>
<feColorMatrix in="SourceAlpha" type="matrix" values="0 0 0 0 0 0 0 0 0 0 0 0 0 0 0 0 0 0 127 0" result="hardAlpha"/>
<feOffset dy="4"/>
<feGaussianBlur stdDeviation="2"/>
<feComposite in2="hardAlpha" operator="out"/>
<feColorMatrix type="matrix" values="0 0 0 0 0 0 0 0 0 0 0 0 0 0 0 0 0 0 0.25 0"/>
<feBlend mode="normal" in2="BackgroundImageFix" result="effect1_dropShadow_21_67"/>
<feBlend mode="normal" in="SourceGraphic" in2="effect1_dropShadow_21_67" result="shape"/>
</filter>
<clipPath id="clip0_21_67">
<rect width="109" height="202" fill="white" transform="translate(673 133)"/>
</clipPath>
</defs>
</svg>
